<?xml version="1.0" encoding="UTF-8"?>
<svg width="1337" height="420" xmlns="http://www.w3.org/2000/svg" preserveAspectRatio="none">
    <g>
        <title>Atmosphere</title>

        <!-- Upper atmosphere -->
        <path fill-opacity="0.4" fill="#ff3fbc" d="m592.044128,23.774172c912.587952,0 1653.238586,740.651731 1653.238586,1653.240599l0,1035.013794c0,912.585205 -740.650635,1653.239014 -1653.238586,1653.239014c-912.587952,0 -1653.239563,-740.653809 -1653.239563,-1653.239014l0,-1035.013794c0,-912.588867 740.651611,-1653.240599 1653.239563,-1653.240599"/>
        <path fill-opacity="0.1" fill="#aad2ff" d="m587.081116,30.721117l0.995483,0c906.014587,0 1641.331604,735.316664 1641.331604,1641.331861l0,1058.830078c0,906.017334 -735.317017,1641.331299 -1641.331604,1641.331299l-0.995483,0c-906.015594,0 -1641.331726,-735.313965 -1641.331726,-1641.331299l0,-1058.830078c0,-906.015198 735.316132,-1641.331861 1641.331726,-1641.331861"/>
        <path fill-opacity="0.1" fill="#aad2ff" d="m578.15033,45.605637l0.995483,0c891.219788,0 1614.539978,723.313919 1614.539978,1614.539749l0,1112.415161c0,891.221191 -723.32019,1614.538574 -1614.539978,1614.538574l-0.995483,0c-891.224976,0 -1614.540344,-723.317383 -1614.540344,-1614.538574l0,-1112.415161c0,-891.22583 723.315369,-1614.539749 1614.540344,-1614.539749"/>
        <path fill-opacity="0.1" fill="#aad2ff" d="m582.122986,39.651871l0.990479,0c896.697937,0 1624.465393,727.759262 1624.465393,1624.462387l0,1092.568604c0,896.699219 -727.767456,1624.462158 -1624.465393,1624.462158l-0.990479,0c-896.703094,0 -1624.466492,-727.762939 -1624.466492,-1624.462158l0,-1092.568604c0,-896.703125 727.763397,-1624.462387 1624.466492,-1624.462387"/>
        <path fill-opacity="0.1" fill="#aad2ff" d="m578.15033,46.598808c890.679382,0 1613.548889,722.867928 1613.548889,1613.546577l0,1114.400269c0,890.674805 -722.869507,1613.546143 -1613.548889,1613.546143c-890.675293,0 -1613.544006,-722.871338 -1613.544006,-1613.546143l0,-1114.400269c0,-890.67865 722.868713,-1613.546577 1613.544006,-1613.546577"/>

        <!-- Lower atmosphere -->
        <path fill-opacity="0.1" fill="#aad2ff" d="m516.710388,219.397614c759.756165,0 1376.378601,616.617828 1376.378601,1376.377411l0,1588.739136c0,759.758301 -616.622437,1376.37793 -1376.378601,1376.37793c-759.756012,0 -1376.373535,-616.619629 -1376.373535,-1376.37793l0,-1588.739136c0,-759.759583 616.617523,-1376.377411 1376.373535,-1376.377411"/>
        <path fill-opacity="0.1" fill="#aad2ff" d="m514.916199,226.698975c753.188416,0 1364.47113,611.28302 1364.47113,1364.470093l0,1612.55603c0,753.185303 -611.282715,1364.468262 -1364.47113,1364.468262c-753.187927,0 -1364.470703,-611.282959 -1364.470703,-1364.468262l0,-1612.55603c0,-753.187073 611.282776,-1364.470093 1364.470703,-1364.470093"/>
        <path fill-opacity="0.1" fill="#aad2ff" d="m495.312622,336.216431c622.264526,0 1127.296021,505.03009 1127.296021,1127.300293l0,2086.895142c0,622.266357 -505.031494,1127.298096 -1127.296021,1127.298096c-622.268608,0 -1127.30011,-505.031738 -1127.30011,-1127.298096l0,-2086.895142c0,-622.270203 505.031502,-1127.300293 1127.30011,-1127.300293"/>
        <path fill-opacity="0.1" fill="#aad2ff" d="m490.340759,343.425568l0.995544,0c615.696167,0 1115.387939,499.695282 1115.387939,1115.391937l0,2110.710815c0,615.69873 -499.691772,1115.393066 -1115.387939,1115.393066l-0.995544,0c-615.697014,0 -1115.388794,-499.694336 -1115.388794,-1115.393066l0,-2110.710815c0,-615.696655 499.69178,-1115.391937 1115.388794,-1115.391937"/>
   </g>
</svg>
